<svg width="1100" height="600" viewBox="0 0 1100 600" xmlns="http://www.w3.org/2000/svg">

    <rect x="50" y="50" width="1000" height="500" fill="#fff" stroke="#000" stroke-width="5"/>

    <line x1="320" y1="50" x2="320" y2="550" stroke="#000" stroke-width="1"/>
    <line x1="660" y1="50" x2="660" y2="550" stroke="#000" stroke-width="1"/>
    <line x1="900" y1="50" x2="900" y2="550" stroke="#000" stroke-width="1"/>

    <polyline points="50,150 570,150 570,550" fill="transparent" stroke="#000" stroke-width="1"/>

    <line x1="50" y1="360" x2="320" y2="360" stroke="#000" stroke-width="1"/>
    <line x1="320" y1="340" x2="570" y2="340" stroke="#000" stroke-width="1"/>
    <line x1="570" y1="480" x2="660" y2="480" stroke="#000" stroke-width="1"/>

    <line x1="120" y1="150" x2="120" y2="360" stroke="#000" stroke-width="1"/>

    <text x="110" y="400" font-family="Arial" font-size="300" opacity="0.5" fill="#0d4">𝄡</text>
    <!--<text x="380" y="300" font-family="Arial" font-size="210" opacity="0.3">𝄞</text>
    <text x="380" y="500" font-family="Arial" font-size="150" opacity="0.3">𝄢</text>-->
    <text x="420" y="400" font-family="Arial" font-size="400" opacity="0.5" fill="#d04">𝄞</text>
    <text x="780" y="400" font-family="Arial" font-size="300" opacity="0.5" fill="#40d">𝄢</text>
    <!--<line x1="710" y1="270" x2="710" y2="330" stroke="#000" stroke-width="20" opacity="0.3"/>
    <line x1="750" y1="270" x2="750" y2="330" stroke="#000" stroke-width="20" opacity="0.3"/>
    <rect x="2030" y="260" width="100" height="80" stroke="#000" stroke-width="10" fill="#fff" transform="scale(0.4, 1)"  opacity="0.3"/>-->
</svg>
